HIERARCHY
ROOT f_avg_root
{
	OFFSET 0.000000 0.000000 0.000000
	CHANNELS 6 Xposition Yposition Zposition Xrotation Yrotation Zrotation
	JOINT f_avg_Pelvis
	{
		OFFSET -0.087631 90.931465 2.782112
		CHANNELS 6 Xposition Yposition Zposition Xrotation Yrotation Zrotation
		JOINT f_avg_L_Hip
		{
			OFFSET 7.136119 -8.958382 -0.804619
			CHANNELS 6 Xposition Yposition Zposition Xrotation Yrotation Zrotation
			JOINT f_avg_L_Knee
			{
				OFFSET 3.066892 -36.420944 -0.668891
				CHANNELS 6 Xposition Yposition Zposition Xrotation Yrotation Zrotation
				JOINT f_avg_L_Ankle
				{
					OFFSET -1.155390 -38.334850 -4.350160
					CHANNELS 6 Xposition Yposition Zposition Xrotation Yrotation Zrotation
					JOINT f_avg_L_Foot
					{
						OFFSET 2.333768 -5.464478 11.437012
						CHANNELS 6 Xposition Yposition Zposition Xrotation Yrotation Zrotation
						End Site
						{
							OFFSET 0.000000 12.888453 0.000000
						}
					}
				}
			}
		}
		JOINT f_avg_R_Hip
		{
			OFFSET -6.901202 -8.896049 -0.479568
			CHANNELS 6 Xposition Yposition Zposition Xrotation Yrotation Zrotation
			JOINT f_avg_R_Knee
			{
				OFFSET -3.615239 -37.065048 -0.918532
				CHANNELS 6 Xposition Yposition Zposition Xrotation Yrotation Zrotation
				JOINT f_avg_R_Ankle
				{
					OFFSET 1.402864 -38.363777 -4.189160
					CHANNELS 6 Xposition Yposition Zposition Xrotation Yrotation Zrotation
					JOINT f_avg_R_Foot
					{
						OFFSET -2.204322 -4.640959 11.789971
						CHANNELS 6 Xposition Yposition Zposition Xrotation Yrotation Zrotation
						End Site
						{
							OFFSET 0.000000 12.860830 0.000000
						}
					}
				}
			}
		}
		JOINT f_avg_Spine1
		{
			OFFSET -0.250821 10.325684 -2.218514
			CHANNELS 6 Xposition Yposition Zposition Xrotation Yrotation Zrotation
			JOINT f_avg_Spine2
			{
				OFFSET 0.358096 12.765762 -0.171301
				CHANNELS 6 Xposition Yposition Zposition Xrotation Yrotation Zrotation
				JOINT f_avg_Spine3
				{
					OFFSET 0.202718 4.907227 2.786721
					CHANNELS 6 Xposition Yposition Zposition Xrotation Yrotation Zrotation
					JOINT f_avg_Neck
					{
						OFFSET -0.196263 20.824318 -4.976548
						CHANNELS 6 Xposition Yposition Zposition Xrotation Yrotation Zrotation
						JOINT f_avg_Head
						{
							OFFSET 0.351716 6.232193 5.020525
							CHANNELS 6 Xposition Yposition Zposition Xrotation Yrotation Zrotation
							End Site
							{
								OFFSET 0.000000 8.010590 0.000000
							}
						}
					}
					JOINT f_avg_L_Collar
					{
						OFFSET 7.529828 11.778038 -3.687482
						CHANNELS 6 Xposition Yposition Zposition Xrotation Yrotation Zrotation
						JOINT f_avg_L_Shoulder
						{
							OFFSET 8.531712 3.173889 -0.729283
							CHANNELS 6 Xposition Yposition Zposition Xrotation Yrotation Zrotation
							JOINT f_avg_L_Elbow
							{
								OFFSET 25.124733 -1.196655 -2.751844
								CHANNELS 6 Xposition Yposition Zposition Xrotation Yrotation Zrotation
								JOINT f_avg_L_Wrist
								{
									OFFSET 23.801907 0.900681 0.004375
									CHANNELS 6 Xposition Yposition Zposition Xrotation Yrotation Zrotation
									JOINT f_avg_L_Hand
									{
										OFFSET 7.966774 -0.968246 -1.320559
										CHANNELS 6 Xposition Yposition Zposition Xrotation Yrotation Zrotation
										End Site
										{
											OFFSET 0.000000 8.133316 0.000000
										}
									}
								}
							}
						}
					}
					JOINT f_avg_R_Collar
					{
						OFFSET -7.703282 11.560616 -4.181066
						CHANNELS 6 Xposition Yposition Zposition Xrotation Yrotation Zrotation
						JOINT f_avg_R_Shoulder
						{
							OFFSET -8.920284 3.278503 -0.980219
							CHANNELS 6 Xposition Yposition Zposition Xrotation Yrotation Zrotation
							JOINT f_avg_R_Elbow
							{
								OFFSET -24.598970 -1.315262 -2.016171
								CHANNELS 6 Xposition Yposition Zposition Xrotation Yrotation Zrotation
								JOINT f_avg_R_Wrist
								{
									OFFSET -24.517677 0.862183 -0.353151
									CHANNELS 6 Xposition Yposition Zposition Xrotation Yrotation Zrotation
									JOINT f_avg_R_Hand
									{
										OFFSET -8.040016 -0.724777 -1.041933
										CHANNELS 6 Xposition Yposition Zposition Xrotation Yrotation Zrotation
										End Site
										{
											OFFSET 0.000000 8.139587 0.000000
										}
									}
								}
							}
						}
					}
				}
			}
		}
	}
}
MOTION
Frames: 5
Frame Time: 0.041667
0.000000 0.000000 0.000000 -0.000003 -0.000003 -90.000207 9.667968 292.780579 -30.078129 -237.008602 -0.263130 87.138310 7.136109 -8.958372 -0.804654 -20.103178 -6.250387 -2.925126 3.066902 -36.420933 -0.668854 65.093561 -4.137093 -4.197692 -1.155375 -38.334846 -4.350189 -2.059512 7.269054 -5.780771 2.333742 -5.464498 11.436974 -17.061027 3.586166 11.984975 -6.901218 -8.896045 -0.479592 -4.834452 0.734063 3.775112 -3.615227 -37.065056 -0.918534 33.195635 0.803520 2.813685 1.402866 -38.363770 -4.189147 -4.158083 -7.886532 3.620350 -2.204302 -4.640934 11.789989 -12.578635 -2.352779 -11.349217 -0.250838 10.325692 -2.218556 12.956186 1.959949 -0.106223 0.358058 12.765752 -0.171282 -3.216920 1.035510 -0.439664 0.202680 4.907210 2.786740 1.995087 1.654066 -0.112636 -0.196274 20.824320 -4.976480 -12.309223 -0.462248 2.244324 0.351711 6.232216 5.020534 3.106994 0.447427 -2.109144 7.529816 11.778056 -3.687415 -4.243410 4.284328 -11.126137 8.531715 3.173889 -0.729264 -4.902629 -8.559457 -51.778264 25.124737 -1.196666 -2.751849 -77.350233 -116.579609 -41.439567 23.801937 0.900693 0.004371 -9.281650 -9.025535 13.573640 7.966812 -0.968246 -1.320567 -0.000002 0.000000 0.000000 -7.703295 11.560617 -4.181002 -6.702930 2.838422 8.325375 -8.920295 3.278473 -0.980225 -13.652309 21.890987 50.499536 -24.598955 -1.315235 -2.016153 113.565453 56.155613 -148.424109 -24.517710 0.862152 -0.353165 -6.670145 10.303011 -15.616420 -8.040033 -0.724823 -1.041934 0.000001 0.000001 0.000001 
0.000000 0.000000 0.000000 -0.000003 -0.000003 -90.000207 17.626955 300.513580 -27.246092 -233.197794 -1.454987 87.341768 7.136103 -8.958377 -0.804622 -19.753556 -6.037787 -2.803925 3.066906 -36.420937 -0.668867 63.692498 -3.557457 -5.150668 -1.155374 -38.334827 -4.350172 -2.431209 6.720221 -4.678940 2.333773 -5.464484 11.436998 -18.018609 5.549879 11.255582 -6.901218 -8.896040 -0.479597 -2.119805 0.606804 2.676313 -3.615230 -37.065052 -0.918570 36.013484 1.394969 2.161709 1.402861 -38.363770 -4.189147 -5.144265 -7.500451 3.338707 -2.204313 -4.640970 11.789992 -13.043919 -2.049813 -10.975986 -0.250847 10.325691 -2.218566 12.238742 2.084818 0.127540 0.358067 12.765756 -0.171277 -2.248895 1.115396 -0.518488 0.202697 4.907222 2.786711 1.670448 1.609903 -0.221738 -0.196264 20.824320 -4.976524 -12.359711 -0.006883 1.977523 0.351714 6.232230 5.020526 4.438285 1.190821 -1.686271 7.529788 11.778036 -3.687488 -3.619477 3.310403 -15.305849 8.531709 3.173906 -0.729259 -6.081245 -12.875531 -55.503340 25.124725 -1.196689 -2.751873 -72.044548 -119.941059 -36.544753 23.801937 0.900673 0.004381 -9.695997 -9.065249 13.912801 7.966834 -0.968261 -1.320567 -0.000003 -0.000000 0.000000 -7.703296 11.560615 -4.181067 -3.432442 3.105476 13.158196 -8.920298 3.278488 -0.980196 -6.117559 20.843091 53.017216 -24.598965 -1.315248 -2.016152 107.140697 59.990644 -136.240936 -24.517660 0.862198 -0.353146 -6.443491 8.973192 -12.999365 -8.040016 -0.724790 -1.041923 0.000001 -0.000001 -0.000000 
0.000000 0.000000 0.000000 -0.000003 -0.000003 -90.000207 21.484381 300.955261 -26.953123 -233.271314 -2.643435 87.396266 7.136116 -8.958382 -0.804630 -24.776255 -7.076928 -4.328933 3.066883 -36.420940 -0.668854 71.665097 -4.759169 -5.287481 -1.155379 -38.334824 -4.350198 -1.854305 7.367557 -4.254842 2.333741 -5.464508 11.436970 -18.946644 3.421779 10.095972 -6.901199 -8.896048 -0.479570 -7.490980 0.776944 2.885814 -3.615237 -37.065044 -0.918575 43.376008 0.995614 3.436375 1.402882 -38.363785 -4.189101 -4.329467 -8.201946 2.948813 -2.204302 -4.640947 11.790030 -12.898426 -0.430085 -10.738948 -0.250822 10.325681 -2.218522 14.256015 1.961006 0.375680 0.358070 12.765755 -0.171286 -2.216710 1.855485 -0.905007 0.202683 4.907208 2.786714 2.480433 1.870213 -0.369951 -0.196251 20.824314 -4.976510 -13.329092 -1.186767 0.911724 0.351701 6.232225 5.020558 3.537426 0.776658 -1.032346 7.529839 11.778037 -3.687434 -2.632856 2.314272 -16.528047 8.531704 3.173892 -0.729275 -3.534351 -13.758752 -54.201267 25.124741 -1.196717 -2.751857 -76.854238 -115.921315 -46.299455 23.801907 0.900691 0.004380 -8.112814 -8.415672 11.424685 7.966816 -0.968232 -1.320568 -0.000002 0.000001 0.000002 -7.703272 11.560619 -4.181030 -1.873919 5.143709 14.615036 -8.920306 3.278490 -0.980203 -2.697005 18.097114 49.282677 -24.598959 -1.315235 -2.016146 60.227256 68.142175 -80.260706 -24.517714 0.862181 -0.353137 -3.318044 6.665716 -9.030953 -8.040014 -0.724780 -1.041917 -0.000002 -0.000002 -0.000001 
0.000000 0.000000 0.000000 -0.000003 -0.000003 -90.000207 20.849606 303.407440 -25.976562 -230.951372 -3.577909 87.310950 7.136112 -8.958378 -0.804634 -22.901392 -6.201389 -2.659543 3.066911 -36.420940 -0.668844 70.610482 -4.167010 -5.756638 -1.155375 -38.334858 -4.350175 -2.374426 6.667045 -4.910853 2.333767 -5.464497 11.436989 -18.922219 4.453520 11.370727 -6.901217 -8.896043 -0.479598 -5.773447 0.641168 1.749109 -3.615226 -37.065063 -0.918563 37.197292 0.790366 2.927971 1.402885 -38.363766 -4.189110 -4.461943 -7.495135 3.383099 -2.204308 -4.640946 11.789989 -13.418077 -2.651955 -11.190637 -0.250829 10.325687 -2.218554 13.960417 1.722971 0.531080 0.358092 12.765772 -0.171269 -1.778903 0.762128 -0.037596 0.202710 4.907217 2.786750 2.579253 1.583128 0.252715 -0.196264 20.824316 -4.976501 -10.853418 -1.601023 2.257742 0.351710 6.232224 5.020536 4.172275 0.203878 -1.907169 7.529812 11.778041 -3.687429 -2.148235 1.872102 -12.920674 8.531713 3.173888 -0.729263 -1.612946 -12.789985 -55.142071 25.124735 -1.196685 -2.751835 -70.497005 -121.318954 -41.765866 23.801922 0.900691 0.004392 -9.086616 -9.777653 12.289214 7.966822 -0.968249 -1.320609 -0.000001 0.000002 -0.000001 -7.703288 11.560616 -4.181020 -5.834591 5.426795 8.991477 -8.920274 3.278472 -0.980242 -11.275213 22.914750 49.755213 -24.598957 -1.315228 -2.016172 116.329951 55.463151 -146.845802 -24.517666 0.862203 -0.353153 -5.423531 10.352367 -14.822624 -8.040026 -0.724765 -1.041909 -0.000000 -0.000000 0.000001 
0.000000 0.000000 0.000000 -0.000003 -0.000003 -90.000207 13.867184 298.542328 -27.148438 -228.525548 -1.115575 86.000865 7.136134 -8.958383 -0.804638 -22.530868 -5.546904 -3.452855 3.066902 -36.420952 -0.668848 67.366962 -3.971989 -5.783711 -1.155395 -38.334846 -4.350162 -1.937312 7.662070 -5.611038 2.333771 -5.464473 11.436999 -18.121187 3.398846 12.303045 -6.901189 -8.896041 -0.479595 -4.521271 -0.244265 2.073939 -3.615245 -37.065052 -0.918584 33.839342 0.801626 2.778600 1.402860 -38.363762 -4.189130 -4.058899 -8.552746 4.312487 -2.204297 -4.640924 11.790018 -12.277840 -1.738483 -12.264107 -0.250794 10.325691 -2.218532 13.067566 2.059130 1.127051 0.358091 12.765759 -0.171257 -2.665051 1.721506 0.122578 0.202713 4.907227 2.786752 2.420736 2.764410 0.640795 -0.196261 20.824318 -4.976505 -10.286092 -2.270039 1.999770 0.351709 6.232228 5.020539 3.280389 -0.214306 -1.963247 7.529806 11.778042 -3.687459 -4.500346 0.781439 -7.051090 8.531725 3.173903 -0.729268 -3.953513 -14.057854 -53.265370 25.124725 -1.196641 -2.751827 -66.973898 -123.912144 -37.734907 23.801914 0.900692 0.004372 -9.474454 -11.096314 13.493268 7.966792 -0.968262 -1.320587 -0.000001 -0.000002 -0.000001 -7.703276 11.560620 -4.181027 -8.260031 8.912443 3.440694 -8.920288 3.278486 -0.980165 -17.664423 25.283815 44.873380 -24.598965 -1.315230 -2.016152 111.872481 59.374028 -144.506804 -24.517677 0.862201 -0.353163 -4.146917 9.913667 -15.872229 -8.040035 -0.724751 -1.041921 0.000000 0.000000 0.000001 
